Coordinates
version=1
nRows=14
nColumns=40
inDegrees=yes

Units are S.I. units (second, meters, Newtons, ...)
Angles are in degrees.

endheader
time	pelvis_tilt	pelvis_list	pelvis_rotation	pelvis_tx	pelvis_ty	pelvis_tz	hip_flexion_r	hip_adduction_r	hip_rotation_r	knee_angle_r	knee_angle_r_beta	ankle_angle_r	subtalar_angle_r	mtp_angle_r	hip_flexion_l	hip_adduction_l	hip_rotation_l	knee_angle_l	knee_angle_l_beta	ankle_angle_l	subtalar_angle_l	mtp_angle_l	lumbar_extension	lumbar_bending	lumbar_rotation	arm_flex_r	arm_add_r	arm_rot_r	elbow_flex_r	pro_sup_r	wrist_flex_r	wrist_dev_r	arm_flex_l	arm_add_l	arm_rot_l	elbow_flex_l	pro_sup_l	wrist_flex_l	wrist_dev_l
     26.12000000	     -1.22615473	     -3.60848539	     23.90144137	      0.81555745	      0.91905250	      0.45038204	      2.99372411	      3.48778053	    -17.73683040	     20.07152451	     20.07152451	     20.82774418	     -5.90774272	     -0.43357537	     25.98972353	     -7.04957944	      7.44454424	     24.59545065	     24.59545065	      6.86509126	     -4.01543282	      4.23356131	     -8.61565930	      3.91350584	      7.95166301	     69.76002325	    -24.70894247	      4.58572571	     73.70072757	     44.77645463	      0.00000000	      0.00000000	    -25.65112761	    -12.41120246	     23.34909029	     34.88563769	     43.74297282	      0.00000000	      0.00000000
     26.14342857	     -1.44980696	     -3.55307218	     23.46703115	      0.81410131	      0.91930966	      0.44396079	      2.62166347	      3.01625329	    -17.45938477	     19.70724566	     19.70724566	     20.76482773	     -5.56491596	     -0.38258490	     25.95871775	     -6.63719308	      7.25889090	     25.12149105	     25.12149105	      7.33020798	     -4.67448093	      4.09990295	     -8.48698526	      3.89535811	      8.10710790	     69.78032373	    -24.56617856	      4.68961591	     73.51777127	     44.78180312	      0.00000000	      0.00000000	    -25.37467190	    -12.52933593	     23.32126971	     35.02135437	     43.75783431	      0.00000000	      0.00000000
     26.16685714	     -1.60660187	     -3.53290975	     22.98194704	      0.81279275	      0.91967594	      0.43716639	      2.20601869	      2.55817617	    -17.23049677	     19.37879234	     19.37879234	     20.66941147	     -5.12234256	     -0.34049050	     25.85411276	     -6.25107103	      7.13405983	     25.65788288	     25.65788288	      7.79931867	     -5.44369622	      4.00730696	     -8.39605114	      4.01268623	      8.26567051	     69.74986255	    -24.48393145	      4.77991630	     73.24984755	     44.79026680	      0.00000000	      0.00000000	    -25.05783505	    -12.61770316	     23.27836243	     35.20184243	     43.77540118	      0.00000000	      0.00000000
     26.19028571	     -1.72053978	     -3.47619677	     22.50464576	      0.81152373	      0.92029775	      0.42987599	      1.70430675	      1.94759695	    -17.48977723	     19.05307758	     19.05307758	     20.55830625	     -3.87633571	     -0.46007899	     25.53558655	     -5.69370977	      7.43183910	     25.95894487	     25.95894487	      8.27245345	     -6.95368489	      4.52075126	     -8.36474987	      4.16848207	      8.46873445	     69.87116001	    -24.60316720	      4.99713752	     72.16747153	     44.83295159	      0.00000000	      0.00000000	    -24.70018978	    -12.79688128	     23.17510444	     35.75844959	     43.83422495	      0.00000000	      0.00000000
     26.21371429	     -1.88902834	     -3.42874489	     21.90610969	      0.81049417	      0.92082835	      0.42253492	      1.46178013	      1.35340041	    -17.15613848	     19.05654449	     19.05654449	     20.35613990	     -3.56970707	     -0.41997097	     25.27331458	     -5.32846728	      7.02269616	     26.27386765	     26.27386765	      8.75749040	     -7.45276668	      4.39566553	     -8.23999966	      4.34473010	      8.46646015	     69.59471624	    -24.40630552	      5.12234227	     71.99955659	     44.83513932	      0.00000000	      0.00000000	    -24.21177454	    -12.80053340	     23.11873019	     35.96979156	     43.85456793	      0.00000000	      0.00000000
     26.23714286	     -2.04425927	     -3.22430105	     21.24497909	      0.80950081	      0.92155241	      0.41480737	      1.29539774	      0.42046710	    -17.19785949	     19.40195731	     19.40195731	     20.24351024	     -2.59255667	     -0.60243069	     24.78736271	     -4.74189586	      6.74207472	     26.37123541	     26.37123541	      9.18198743	     -8.40791380	      4.70934529	     -8.14906589	      4.40224752	      8.59830082	     69.32401917	    -24.48139194	      5.25184686	     71.17786961	     44.86869737	      0.00000000	      0.00000000	    -23.56096982	    -12.90635818	     22.87310169	     36.45439568	     43.93100558	      0.00000000	      0.00000000
     26.26057143	     -2.18934362	     -3.07821033	     20.56160067	      0.80862558	      0.92227870	      0.40697102	      1.22364405	     -0.44924433	    -17.02578723	     19.85892002	     19.85892002	     20.04892523	     -1.91618385	     -0.74310192	     24.30218077	     -4.25472592	      6.30043738	     26.43245517	     26.43245517	      9.63861145	     -9.07080364	      4.87774341	     -8.03698203	      4.56306780	      8.55706308	     68.84281931	    -24.39578357	      5.38282996	     70.58751715	     44.89456888	      0.00000000	      0.00000000	    -22.75125264	    -12.91334425	     22.58136328	     36.82392054	     44.01964648	      0.00000000	      0.00000000
     26.28400000	     -2.26716107	     -2.90779711	     19.83793357	      0.80786226	      0.92312699	      0.39897548	      1.17560707	     -1.33546938	    -16.66300966	     20.45857295	     20.45857295	     19.74369955	     -1.54924737	     -0.85653049	     23.70898847	     -3.79395493	      5.71908845	     26.43373170	     26.43373170	     10.04737322	     -9.53920047	      4.89439928	     -7.98226395	      4.76401862	      8.48914300	     68.11295168	    -24.31254161	      5.47480802	     70.11431739	     44.91109836	      0.00000000	      0.00000000	    -21.68169688	    -12.88363545	     22.33654572	     37.11541699	     44.08733474	      0.00000000	      0.00000000
     26.30742857	     -2.32511103	     -2.71637825	     19.08735937	      0.80713598	      0.92391319	      0.39092607	      1.24190335	     -2.28279790	    -16.22029112	     21.28884825	     21.28884825	     19.45062947	     -1.22840961	     -1.06740497	     23.07055500	     -3.31460107	      5.09885424	     26.38254483	     26.38254483	     10.43118292	    -10.02220839	      4.90155832	     -7.93412226	      4.97354181	      8.39395452	     67.16645429	    -24.28191368	      5.52782815	     69.54577191	     44.92987569	      0.00000000	      0.00000000	    -20.34867388	    -12.86245132	     22.06908539	     37.37947611	     44.15648514	      0.00000000	      0.00000000
     26.33085714	     -2.25138125	     -2.67789062	     18.38115767	      0.80651841	      0.92470326	      0.38287100	      1.17497083	     -2.97934163	    -15.70316187	     21.96856791	     21.96856791	     19.07164638	     -1.02489519	     -1.16031120	     22.43963421	     -3.01212505	      4.56462112	     26.46040908	     26.46040908	     10.84215682	    -10.43200823	      4.81996166	     -7.94444552	      5.46410420	      8.07828169	     66.01907552	    -23.99530267	      5.70346721	     69.12458994	     44.93432470	      0.00000000	      0.00000000	    -18.81040326	    -12.80110438	     21.90142302	     37.76786061	     44.20280708	      0.00000000	      0.00000000
     26.35428571	     -2.36153110	     -2.29464897	     17.54799436	      0.80569744	      0.92512587	      0.37484380	      1.68509676	     -4.25049522	    -14.96415097	     23.54797193	     23.54797193	     18.82799587	     -1.03773465	     -1.67808229	     21.76469314	     -2.31003678	      3.83122262	     26.30137280	     26.30137280	     11.16254742	    -10.96064527	      4.86841151	     -7.89624146	      5.43946617	      8.03810063	     64.60987535	    -24.19658324	      5.56700386	     68.14711594	     44.97053495	      0.00000000	      0.00000000	    -16.93194030	    -12.83950501	     21.56091173	     37.87680955	     44.28316315	      0.00000000	      0.00000000
     26.37771429	     -2.41079100	     -2.12582872	     16.79412028	      0.80480483	      0.92533405	      0.36692538	      2.10618733	     -5.18113618	    -14.15359288	     24.79642710	     24.79642710	     18.02727498	     -1.38806856	     -3.35033984	     21.27176317	     -1.75997181	      3.43070722	     26.38901796	     26.38901796	     11.52467426	    -11.73655824	      5.09728935	     -7.79406680	      5.74255036	      8.00272598	     62.84292677	    -23.99920811	      4.41671955	     67.05625422	     45.07094131	      0.00000000	      0.00000000	    -14.13723825	    -12.34304906	     20.76103262	     36.31106101	     44.52421942	      0.00000000	      0.00000000
     26.40114286	     -2.38478863	     -1.89414978	     15.99745073	      0.80390062	      0.92534465	      0.35925710	      2.65111987	     -6.14111844	    -13.10589865	     26.41805247	     26.41805247	     17.68974611	     -1.84606884	     -3.83247592	     20.72745068	     -1.22945219	      2.81586106	     26.51570262	     26.51570262	     11.88883349	    -12.24791522	      5.06653382	     -7.85916619	      5.96187808	      7.69472932	     60.96728621	    -23.90309411	      4.42192999	     66.05030336	     45.10040519	      0.00000000	      0.00000000	    -11.85677145	    -12.40221802	     20.49255689	     36.73561921	     44.60227720	      0.00000000	      0.00000000
     26.42457143	     -2.36617698	     -1.69644159	     15.21873149	      0.80285636	      0.92501977	      0.35188832	      3.29357803	     -6.95807801	    -11.83323761	     28.00779087	     28.00779087	     16.74704746	     -3.02848541	     -5.82730852	     20.35038821	     -0.69348592	      2.35610106	     26.86145581	     26.86145581	     12.38045365	    -12.92555741	      5.37756703	     -7.88272232	      6.21722475	      7.52161680	     58.67279264	    -23.49084291	      2.95505756	     64.58521885	     45.21411993	      0.00000000	      0.00000000	     -8.66650646	    -12.15835617	     20.29376011	     35.48653894	     44.75110689	      0.00000000	      0.00000000
